<?xml version="1.0" standalone="no"?><!DOCTYPE svg PUBLIC "-//W3C//DTD SVG 1.1//EN" "http://www.w3.org/Graphics/SVG/1.1/DTD/svg11.dtd"><svg t="1605931265215" class="icon" viewBox="0 0 1024 1024" version="1.1" xmlns="http://www.w3.org/2000/svg" p-id="2757" xmlns:xlink="http://www.w3.org/1999/xlink" width="200" height="200"><defs><style type="text/css"></style></defs><path d="M512 512m-512 0a512 512 0 1 0 1024 0 512 512 0 1 0-1024 0Z" fill="#1DA1F2" p-id="2758"></path><path d="M781.963636 405.410909c0-6.283636-0.232727-12.334545-0.465454-18.618182a282.530909 282.530909 0 0 0 68.421818-73.541818c-24.901818 11.170909-51.432727 18.385455-78.661818 21.410909A139.915636 139.915636 0 0 0 831.534545 256c-26.530909 16.058182-55.854545 27.461818-86.807272 33.512727-24.901818-28.392727-60.509091-46.545455-99.84-47.243636-75.636364-1.163636-136.843636 62.603636-136.843637 142.661818 0 11.403636 1.163636 22.341818 3.490909 33.047273-113.803636-7.214545-214.807273-66.56-282.298181-155.927273-11.869091 21.410909-18.618182 46.312727-18.618182 73.309091 0 50.734545 24.203636 95.650909 60.974545 122.414545-22.574545-0.698182-43.752727-7.68-62.138182-18.850909v1.861819c0 70.749091 47.243636 130.327273 109.847273 144.058181-11.403636 3.258182-23.505455 4.887273-36.072727 4.887273-8.610909 0-17.221818-0.930909-25.832727-2.792727 17.454545 58.181818 67.956364 100.538182 127.767272 101.934545-46.778182 38.865455-105.890909 62.138182-169.890909 61.905455-10.938182 0-21.876364-0.698182-32.581818-2.094546 60.509091 41.658182 132.654545 65.861818 209.92 65.861819 251.810909 0 389.352727-218.996364 389.352727-409.134546z" fill="#FFFFFF" p-id="2759"></path></svg>